<?xml version="1.0" encoding="iso-8859-1"?>
<!-- Generator: Adobe Illustrator 16.0.0, SVG Export Plug-In . SVG Version: 6.00 Build 0)  -->
<!DOCTYPE svg PUBLIC "-//W3C//DTD SVG 1.1//EN" "http://www.w3.org/Graphics/SVG/1.1/DTD/svg11.dtd">
<svg xmlns="http://www.w3.org/2000/svg" xmlns:xlink="http://www.w3.org/1999/xlink" version="1.1" id="Capa_1" x="0px" y="0px" width="512px" height="512px" viewBox="0 0 612.002 612.002" style="enable-background:new 0 0 612.002 612.002;" xml:space="preserve">
<g>
	<g>
		<path d="M606.535,496.182l-9.9-9.9l-33.296-32.995l-38.096-38.096c9.299-14.699,14.098-30.896,14.098-48.597    c0-3.897-0.191-7.507-0.595-11.397c-2.298-21.911-11.32-40.879-26.999-56.692c-18.814-18.98-41.397-28.196-67.494-28.196    s-48.591,9.298-67.495,28.196c-18.296,18.296-27.594,40.796-27.594,67.193c0,26.398,9.298,48.892,27.594,67.188    c15.902,15.902,34.787,25.009,56.699,27.3c3.891,0.41,7.794,0.602,11.397,0.602c17.399,0,33.597-4.498,48.597-13.797    l53.991,53.992l26.999,27.3c0.896,0.902,1.498,1.497,2.4,1.798c2.995,2.7,5.996,3.897,8.997,3.897h0.602    c3.296-0.301,5.996-0.902,8.096-2.4c2.099-1.497,4.422-3.68,7.5-6.598C610.662,516.8,617.036,508.782,606.535,496.182z     M487.749,408.894c-12.152,12.146-26.698,18.597-44.098,18.597c-17.093,0-31.646-6.45-43.791-18.597    c-12.153-12.152-18.597-26.698-18.597-43.797c0-17.4,6.443-31.946,18.597-44.099c12.146-12.146,26.698-18.296,43.791-18.296    c17.399,0,31.945,6.149,44.098,18.296c12.152,12.152,18.296,26.698,18.296,44.099    C506.045,382.195,499.901,396.741,487.749,408.894z" fill="#FFFFFF"/>
		<path d="M33.296,497.979V179.117h487.147v2.995v87.294h33.002v-87.294v-2.995c0-17.144-15.301-31.197-33.002-32.4v-0.595h-2.994    H375.261H258.574v-32.099c0-9.9-3.75-18.45-10.802-25.496c-7.046-7.052-15.294-10.802-25.194-10.802H36.297    c-10.201,0-18.827,3.673-25.796,10.802C3.673,95.496,0,104.123,0,114.022v32.099v32.995v318.863c0,9.9,3.526,18.674,10.501,25.796    c6.828,6.976,15.595,10.502,25.796,10.502h455.951v-33.296H36.297C34.198,500.981,33.296,500.079,33.296,497.979z M33.296,114.022    c0-2.099,0.902-3.001,3.001-3.001h186.28c1.203,0,3.001,1.798,3.001,3.001v32.099H33.296V114.022z" fill="#FFFFFF"/>
	</g>
</g>
<g>
</g>
<g>
</g>
<g>
</g>
<g>
</g>
<g>
</g>
<g>
</g>
<g>
</g>
<g>
</g>
<g>
</g>
<g>
</g>
<g>
</g>
<g>
</g>
<g>
</g>
<g>
</g>
<g>
</g>
</svg>
